<?xml version="1.0" encoding="utf-8"?>
<!-- Generator: Adobe Illustrator 16.0.4, SVG Export Plug-In . SVG Version: 6.00 Build 0)  -->
<!DOCTYPE svg PUBLIC "-//W3C//DTD SVG 1.1//EN" "http://www.w3.org/Graphics/SVG/1.1/DTD/svg11.dtd">
<svg version="1.1" id="Layer_1" xmlns="http://www.w3.org/2000/svg" xmlns:xlink="http://www.w3.org/1999/xlink" x="0px" y="0px"
	 width="86.01px" height="83.569px" viewBox="0 0 86.01 83.569" enable-background="new 0 0 86.01 83.569" xml:space="preserve">
<path fill="#10fbea" d="M78.203,6.286H7.809c-2.648,0-4.803,2.166-4.803,4.84v61.318c0,2.67,2.154,4.84,4.803,4.84h70.395
	c2.652,0,4.801-2.17,4.801-4.84V11.125C83.004,8.452,80.855,6.286,78.203,6.286L78.203,6.286z M66.203,9.51
	c1.764,0,3.201,1.448,3.201,3.229c0,1.777-1.438,3.226-3.201,3.226s-3.197-1.448-3.197-3.226C63.006,10.958,64.439,9.51,66.203,9.51
	L66.203,9.51z M57.406,9.51c1.764,0,3.197,1.448,3.197,3.229c0,1.777-1.434,3.226-3.197,3.226s-3.201-1.448-3.201-3.226
	C54.205,10.958,55.643,9.51,57.406,9.51L57.406,9.51z M78.203,72.444H7.809v-53.25h70.395V72.444L78.203,72.444z M75.004,15.965
	c-1.764,0-3.201-1.448-3.201-3.226c0-1.781,1.438-3.229,3.201-3.229s3.199,1.448,3.199,3.229
	C78.203,14.517,76.768,15.965,75.004,15.965L75.004,15.965z"/>
<g>
	<path fill="#10fbea" d="M53.775,49.671c0,2.831-0.897,5.158-2.691,6.983c-1.795,1.824-4.258,2.737-7.39,2.737
		c-1.565,0-2.963-0.226-4.191-0.677c-1.229-0.452-2.271-1.117-3.126-1.997c-1.023-1.036-1.807-2.373-2.348-4.011
		c-0.543-1.638-0.813-3.595-0.813-5.872c0-2.36,0.253-4.456,0.759-6.287c0.506-1.831,1.331-3.451,2.475-4.86
		c1.097-1.337,2.529-2.382,4.301-3.134c1.77-0.753,3.865-1.129,6.287-1.129c0.879,0,1.761,0.057,2.646,0.171
		c0.885,0.115,1.49,0.208,1.815,0.28v5.293h-0.487c-0.313-0.156-0.832-0.334-1.555-0.533c-0.723-0.199-1.547-0.298-2.475-0.298
		c-2.107,0-3.733,0.554-4.878,1.662c-1.145,1.108-1.849,2.698-2.114,4.77c0.88-0.566,1.773-1.018,2.684-1.355
		c0.909-0.337,1.936-0.506,3.08-0.506c0.964,0,1.87,0.129,2.719,0.389c0.85,0.259,1.605,0.635,2.268,1.129
		c0.928,0.711,1.665,1.644,2.213,2.8S53.775,47.864,53.775,49.671z M45.935,53.736c0.35-0.434,0.617-0.906,0.804-1.418
		c0.187-0.512,0.28-1.286,0.28-2.322c0-0.867-0.108-1.583-0.325-2.15c-0.217-0.566-0.523-1.018-0.922-1.355
		c-0.396-0.337-0.849-0.569-1.354-0.696c-0.506-0.126-1.042-0.189-1.608-0.189c-0.469,0-0.954,0.061-1.454,0.181
		c-0.5,0.121-0.966,0.271-1.399,0.452c0,0.121-0.007,0.319-0.019,0.596c-0.012,0.277-0.019,0.626-0.019,1.048
		c0,1.542,0.136,2.782,0.407,3.722c0.271,0.939,0.611,1.65,1.021,2.132c0.313,0.386,0.671,0.663,1.075,0.831
		c0.403,0.169,0.828,0.253,1.273,0.253c0.361,0,0.753-0.09,1.175-0.271C45.29,54.368,45.646,54.097,45.935,53.736z"/>
</g>
</svg>
