<?xml version="1.0" encoding="utf-8"?>
<!-- Generator: Adobe Illustrator 16.0.4, SVG Export Plug-In . SVG Version: 6.00 Build 0)  -->
<!DOCTYPE svg PUBLIC "-//W3C//DTD SVG 1.1//EN" "http://www.w3.org/Graphics/SVG/1.1/DTD/svg11.dtd">
<svg version="1.1" id="Layer_1" xmlns="http://www.w3.org/2000/svg" xmlns:xlink="http://www.w3.org/1999/xlink" x="0px" y="0px"
	 width="86.01px" height="83.569px" viewBox="0 0 86.01 83.569" enable-background="new 0 0 86.01 83.569" xml:space="preserve">
<path fill="#10fbea" d="M76.011,77.002c1.104,0,2-0.899,2-2.004V9c0-1.104-0.896-2-2-2H10.012c-1.104,0-2,0.896-2,2v65.998
	c0,1.104,0.896,2.004,2,2.004H76.011 M76.011,82.001H10.012c-3.868,0-7-3.135-7-7.003V9c0-3.864,3.132-7,7-7h65.999
	c3.868,0,6.999,3.136,6.999,7v65.998C83.01,78.866,79.878,82.001,76.011,82.001L76.011,82.001L76.011,82.001z"/>
<polygon fill="#10fbea" points="27.559,22.002 26.091,29.426 56.151,29.426 55.207,34.199 25.118,34.199 23.678,41.626 
	53.738,41.626 52.043,50.098 39.951,54.125 29.448,50.098 30.17,46.424 22.782,46.424 21.015,55.323 38.381,61.999 58.39,55.323 
	65.008,22.002 27.559,22.002 "/>
</svg>
