<?xml version="1.0" encoding="utf-8"?>
<!-- Generator: Adobe Illustrator 16.0.4, SVG Export Plug-In . SVG Version: 6.00 Build 0)  -->
<!DOCTYPE svg PUBLIC "-//W3C//DTD SVG 1.1//EN" "http://www.w3.org/Graphics/SVG/1.1/DTD/svg11.dtd">
<svg version="1.1" id="Layer_1" xmlns="http://www.w3.org/2000/svg" xmlns:xlink="http://www.w3.org/1999/xlink" x="0px" y="0px"
	 width="86.01px" height="83.568px" viewBox="0 0 86.01 83.568" enable-background="new 0 0 86.01 83.568" xml:space="preserve">
<path fill="#10fbea" d="M54.268,38.715c2.062-1.17,3.311-2.947,3.764-5.281c0.367-1.904,0.252-3.797-0.289-5.658
	c-0.424-1.473-1.193-2.736-2.336-3.76c-1.045-0.936-2.268-1.553-3.58-2.008c-1.486-0.51-3.021-0.795-4.576-0.979
	c-1.287-0.15-2.58-0.244-3.879-0.246c-5.443-0.012-10.891-0.008-16.338-0.008c-0.043,0-0.084,0.008-0.133,0.014
	c0,13.322,0,26.641,0,39.984c0.088,0,0.156,0,0.223,0c5.496,0,10.992,0,16.484,0.002c1.312,0,2.621-0.031,3.928-0.156
	c1.072-0.104,2.139-0.252,3.189-0.488c1.549-0.352,3.043-0.855,4.42-1.674c1.924-1.143,3.299-2.746,4.053-4.879
	c0.371-1.059,0.566-2.148,0.631-3.266c0.094-1.605-0.014-3.191-0.496-4.732c-0.473-1.508-1.25-2.83-2.381-3.932
	c-1.08-1.045-2.355-1.746-3.771-2.197c-0.076-0.023-0.152-0.049-0.26-0.084c0.062-0.031,0.098-0.047,0.129-0.062
	C53.455,39.112,53.875,38.938,54.268,38.715L54.268,38.715z M37.24,27.803c0.059-0.004,0.104-0.006,0.148-0.006
	c1.904,0.002,3.807-0.004,5.705,0.006c0.902,0.008,1.789,0.125,2.621,0.51c1.215,0.562,1.918,1.521,2.115,2.852
	c0.121,0.836,0.09,1.67-0.174,2.479c-0.365,1.102-1.129,1.812-2.191,2.215c-0.795,0.303-1.625,0.393-2.469,0.396
	c-1.857,0.004-3.719,0-5.576,0c-0.055,0-0.113-0.004-0.18-0.004C37.24,33.432,37.24,30.625,37.24,27.803L37.24,27.803z M49.237,50.5
	c-0.371,1.156-1.119,1.988-2.195,2.523c-0.971,0.482-2.02,0.688-3.094,0.701c-2.139,0.031-4.277,0.021-6.416,0.027
	c-0.305,0-0.305,0-0.305-0.301c0-3.295,0-6.588,0.004-9.885c0-0.084,0-0.172,0-0.281c0.076,0,0.135,0,0.189,0
	c2.066,0,4.133-0.008,6.195,0.006c1.08,0.008,2.139,0.152,3.145,0.574c1.59,0.67,2.477,1.889,2.701,3.6
	C49.594,48.489,49.555,49.506,49.237,50.5L49.237,50.5z"/>
<path fill="#10fbea" d="M76.004,76.785c1.105,0,2-0.898,2-2.004V8.783c0-1.104-0.895-2-2-2H10.006c-1.104,0-2,0.896-2,2
	v65.998c0,1.105,0.896,2.004,2,2.004H76.004 M76.004,81.785H10.006c-3.867,0-7-3.135-7-7.004V8.783c0-3.863,3.133-7,7-7h65.998
	c3.869,0,7,3.137,7,7v65.998C83.004,78.651,79.873,81.785,76.004,81.785L76.004,81.785L76.004,81.785z"/>
</svg>
