<?xml version="1.0" encoding="utf-8"?>
<!-- Generator: Adobe Illustrator 16.0.4, SVG Export Plug-In . SVG Version: 6.00 Build 0)  -->
<!DOCTYPE svg PUBLIC "-//W3C//DTD SVG 1.1//EN" "http://www.w3.org/Graphics/SVG/1.1/DTD/svg11.dtd">
<svg version="1.1" id="Layer_1" xmlns="http://www.w3.org/2000/svg" xmlns:xlink="http://www.w3.org/1999/xlink" x="0px" y="0px"
	 width="86.01px" height="83.569px" viewBox="0 0 86.01 83.569" enable-background="new 0 0 86.01 83.569" xml:space="preserve">
<path fill="#10fbea" d="M36.414,54.064l-17.402-7.607v-4.222l17.402-7.607v4.972l-12.125,4.712l12.125,4.815V54.064
	L36.414,54.064z M47.174,34.524l-4.848,20.112c-0.16,0.663-0.299,1.188-0.42,1.573c-0.121,0.382-0.307,0.684-0.557,0.896
	c-0.246,0.216-0.607,0.323-1.078,0.323c-1.178,0-1.766-0.514-1.766-1.535c0-0.267,0.115-0.934,0.344-2.007l4.826-20.113
	c0.258-1.069,0.498-1.802,0.727-2.197c0.232-0.396,0.68-0.594,1.352-0.594c0.576,0,1.016,0.143,1.322,0.42
	c0.305,0.278,0.457,0.663,0.457,1.153C47.533,32.913,47.412,33.569,47.174,34.524L47.174,34.524z M49.609,54.098v-4.938l12.16-4.815
	l-12.16-4.746v-4.902l17.402,7.572v4.188L49.609,54.098L49.609,54.098z M78.209,77.284H7.814c-2.652,0-4.801-2.166-4.801-4.84
	V11.125c0-2.673,2.148-4.84,4.801-4.84h70.395c2.652,0,4.801,2.167,4.801,4.84v61.318C83.01,75.118,80.861,77.284,78.209,77.284
	L78.209,77.284z M57.412,9.511c-1.764,0-3.201,1.448-3.201,3.229c0,1.78,1.438,3.229,3.201,3.229s3.197-1.448,3.197-3.229
	C60.609,10.959,59.176,9.511,57.412,9.511L57.412,9.511z M66.209,9.511c-1.764,0-3.197,1.448-3.197,3.229
	c0,1.78,1.434,3.229,3.197,3.229s3.201-1.448,3.201-3.229C69.41,10.959,67.973,9.511,66.209,9.511L66.209,9.511z M75.012,9.511
	c-1.768,0-3.201,1.448-3.201,3.229c0,1.78,1.434,3.229,3.201,3.229c1.764,0,3.197-1.448,3.197-3.229
	C78.209,10.959,76.775,9.511,75.012,9.511L75.012,9.511z M78.209,19.195H7.814v53.249h70.395V19.195L78.209,19.195z"/>
</svg>
