<?xml version="1.0" encoding="utf-8"?>
<!-- Generator: Adobe Illustrator 16.0.4, SVG Export Plug-In . SVG Version: 6.00 Build 0)  -->
<!DOCTYPE svg PUBLIC "-//W3C//DTD SVG 1.1//EN" "http://www.w3.org/Graphics/SVG/1.1/DTD/svg11.dtd">
<svg version="1.1" id="Layer_1" xmlns="http://www.w3.org/2000/svg" xmlns:xlink="http://www.w3.org/1999/xlink" x="0px" y="0px"
	 width="86.01px" height="83.569px" viewBox="0 0 86.01 83.569" enable-background="new 0 0 86.01 83.569" xml:space="preserve">
<path fill="#10fbea" d="M44.86,49.602c-2.316,2.26-3.559,3.014-4.486,3.704c-0.402,0.302-0.527-0.097-0.625-0.277
	c-0.476-0.893-0.917-1.518-1.746-2.326c-0.83-0.81-1.472-1.24-2.389-1.705c-0.184-0.091-0.594-0.212-0.285-0.607
	c0.712-0.903,1.483-2.114,3.802-4.371c4.666-4.549,20.349-17.003,21.766-15.624C62.311,29.773,49.53,45.053,44.86,49.602
	L44.86,49.602z M37.226,58.448c-4.194,4.091-12.666,4.653-11.01,2.806c3.667-4.094,1.337-6.854,4.097-9.544
	c1.777-1.733,4.375-1.243,6.281,0.617C38.503,54.185,39.007,56.715,37.226,58.448L37.226,58.448z M78.202,77.284H7.808
	c-2.649,0-4.802-2.17-4.802-4.84V11.125c0-2.674,2.153-4.84,4.802-4.84h70.394c2.653,0,4.802,2.166,4.802,4.84v61.318
	C83.003,75.114,80.854,77.284,78.202,77.284L78.202,77.284z M57.405,9.51c-1.764,0-3.201,1.448-3.201,3.229
	c0,1.777,1.438,3.226,3.201,3.226s3.198-1.448,3.198-3.226C60.603,10.958,59.168,9.51,57.405,9.51L57.405,9.51z M66.203,9.51
	c-1.764,0-3.198,1.448-3.198,3.229c0,1.777,1.434,3.226,3.198,3.226s3.201-1.448,3.201-3.226C69.404,10.958,67.966,9.51,66.203,9.51
	L66.203,9.51z M75.004,9.51c-1.764,0-3.201,1.448-3.201,3.229c0,1.777,1.438,3.226,3.201,3.226s3.198-1.448,3.198-3.226
	C78.202,10.958,76.768,9.51,75.004,9.51L75.004,9.51z M78.202,19.194H7.808v53.25h70.394V19.194L78.202,19.194z"/>
</svg>
