<?xml version="1.0" encoding="utf-8"?>
<!-- Generator: Adobe Illustrator 16.0.4, SVG Export Plug-In . SVG Version: 6.00 Build 0)  -->
<!DOCTYPE svg PUBLIC "-//W3C//DTD SVG 1.1//EN" "http://www.w3.org/Graphics/SVG/1.1/DTD/svg11.dtd">
<svg version="1.1" id="Layer_1" xmlns="http://www.w3.org/2000/svg" xmlns:xlink="http://www.w3.org/1999/xlink" x="0px" y="0px"
	 width="86.01px" height="83.569px" viewBox="0 0 86.01 83.569" enable-background="new 0 0 86.01 83.569" xml:space="preserve">
<path fill="#10fbea" d="M78.141,33.712h-7.223V11.825c0-4.146-3.344-7.537-7.422-7.537H9.926c-4.078,0-7.42,3.392-7.42,7.537
	v31.807c0,4.156,3.342,7.542,7.42,7.542h6.844v21.907c0,3.42,2.75,6.201,6.104,6.201h13.58c3.357,0,6.104-2.784,6.104-6.201V51.169
	h4.908v10.968c0,2.993,2.414,5.447,5.367,5.447h25.309c2.951,0,5.363-2.447,5.363-5.447v-22.98
	C83.504,36.157,81.088,33.712,78.141,33.712L78.141,33.712z M76.568,36.702c0.92,0,1.662,0.754,1.662,1.684
	c0,0.928-0.742,1.685-1.662,1.685c-0.918,0-1.656-0.754-1.656-1.685C74.912,37.458,75.65,36.702,76.568,36.702L76.568,36.702z
	 M79.441,62.912h-27.91V42.615h27.91V62.912L79.441,62.912z M71.818,36.706c0.92,0,1.658,0.753,1.658,1.68
	c0,0.928-0.738,1.681-1.658,1.681c-0.914,0-1.656-0.753-1.656-1.681C70.162,37.458,70.904,36.706,71.818,36.706L71.818,36.706z
	 M61.828,8.131c1.201,0,2.17,0.985,2.17,2.204s-0.969,2.201-2.17,2.201c-1.193,0-2.166-0.982-2.166-2.201S60.635,8.131,61.828,8.131
	L61.828,8.131z M55.617,8.134c1.197,0,2.16,0.986,2.16,2.201c0,1.216-0.963,2.198-2.16,2.198c-1.201,0-2.162-0.982-2.162-2.198
	C53.455,9.121,54.42,8.134,55.617,8.134L55.617,8.134z M29.578,39.438c0-0.931,0.738-1.681,1.652-1.681
	c0.912,0,1.66,0.75,1.66,1.681c0,0.927-0.748,1.68-1.66,1.68C30.316,41.118,29.578,40.365,29.578,39.438L29.578,39.438z
	 M34.32,39.438c0-0.935,0.746-1.685,1.664-1.685c0.916,0,1.654,0.75,1.654,1.685c0,0.927-0.738,1.684-1.654,1.684
	C35.066,41.122,34.32,40.365,34.32,39.438L34.32,39.438z M37.938,73.962H21.4V44.247h16.541L37.938,73.962L37.938,73.962
	L37.938,73.962z M42.557,44.705v-4.017c0-3.406-2.746-6.198-6.102-6.198H22.873c-3.354,0-6.104,2.792-6.104,6.198v4.017H8.125
	V16.258h57.166v17.454H52.832c-2.953,0-5.367,2.444-5.367,5.444v5.548H42.557L42.557,44.705z"/>
</svg>
