<?xml version="1.0" encoding="utf-8"?>
<!-- Generator: Adobe Illustrator 16.0.4, SVG Export Plug-In . SVG Version: 6.00 Build 0)  -->
<!DOCTYPE svg PUBLIC "-//W3C//DTD SVG 1.1//EN" "http://www.w3.org/Graphics/SVG/1.1/DTD/svg11.dtd">
<svg version="1.1" id="Layer_1" xmlns="http://www.w3.org/2000/svg" xmlns:xlink="http://www.w3.org/1999/xlink" x="0px" y="0px"
	 width="86.01px" height="83.569px" viewBox="0 0 86.01 83.569" enable-background="new 0 0 86.01 83.569" xml:space="preserve">
<path fill="#10fbea" d="M60.502,76.783h-5c-2.757,0-4.496-2.239-4.496-5l-1-6.999H36.004l-0.5,6.999c0,2.757-2.239,5-5,5
	h-4.996c-1.385,0-2.5,1.118-2.5,2.496c0,1.382,1.115,2.5,2.5,2.5h34.994c1.382,0,2.5-1.118,2.5-2.5
	C63.002,77.901,61.884,76.783,60.502,76.783L60.502,76.783z M78.626,1.789H7.384c-2.416,0-4.375,2.101-4.375,4.687v48.122
	c0,2.586,1.58,5.187,3.997,5.187h70.998c2.413,0,4.996-2.601,4.996-5.187V6.476C83,3.89,81.039,1.789,78.626,1.789L78.626,1.789z
	 M78.004,53.785H8.006L8.009,6.788h69.992L78.004,53.785L78.004,53.785z"/>
</svg>
