<?xml version="1.0" encoding="utf-8"?>
<!-- Generator: Adobe Illustrator 16.0.4, SVG Export Plug-In . SVG Version: 6.00 Build 0)  -->
<!DOCTYPE svg PUBLIC "-//W3C//DTD SVG 1.1//EN" "http://www.w3.org/Graphics/SVG/1.1/DTD/svg11.dtd">
<svg version="1.1" id="Layer_1" xmlns="http://www.w3.org/2000/svg" xmlns:xlink="http://www.w3.org/1999/xlink" x="0px" y="0px"
	 width="86.01px" height="83.569px" viewBox="0 0 86.01 83.569" enable-background="new 0 0 86.01 83.569" xml:space="preserve">
<path fill="#10fbea" d="M60.411,41.689c-4.184,0-7.59-3.392-7.59-7.558c0-4.167,3.406-7.556,7.59-7.556
	c4.187,0,7.593,3.389,7.593,7.556C68.004,38.297,64.598,41.689,60.411,41.689L60.411,41.689z M60.411,31.846
	c-1.268,0-2.295,1.024-2.295,2.285c0,1.264,1.028,2.288,2.295,2.288c1.271,0,2.298-1.024,2.298-2.288
	C62.709,32.871,61.682,31.846,60.411,31.846L60.411,31.846z M63.129,59.931l-1.069,1.065c-0.74,0.736-1.938,0.736-2.673,0
	l-9.18-9.138l-3.184,3.17l2.149,2.139c0.739,0.736,0.739,1.927,0,2.663l-1.07,1.062c-0.736,0.736-1.934,0.736-2.673,0l-12.225-12.17
	c-0.74-0.735-1.934-0.735-2.673,0l-12.225,12.17c-0.739,0.736-1.937,0.736-2.673,0l-1.069-1.062c-0.739-0.736-0.739-1.927,0-2.663
	l15.968-15.898c0.739-0.735,1.934-0.735,2.673,0L43.28,51.3l5.59-5.562c0.739-0.736,1.934-0.736,2.673,0l11.586,11.534
	C63.869,58.004,63.869,59.199,63.129,59.931L63.129,59.931z M78.208,76.569H7.814c-2.649,0-4.802-2.17-4.802-4.84V10.411
	c0-2.674,2.153-4.84,4.802-4.84h70.394c2.653,0,4.802,2.166,4.802,4.84v61.318C83.01,74.399,80.861,76.569,78.208,76.569
	L78.208,76.569z M57.411,8.795c-1.764,0-3.201,1.448-3.201,3.229c0,1.777,1.438,3.226,3.201,3.226s3.198-1.448,3.198-3.226
	C60.609,10.244,59.175,8.795,57.411,8.795L57.411,8.795z M66.209,8.795c-1.764,0-3.197,1.448-3.197,3.229
	c0,1.777,1.434,3.226,3.197,3.226s3.201-1.448,3.201-3.226C69.41,10.244,67.973,8.795,66.209,8.795L66.209,8.795z M75.011,8.795
	c-1.764,0-3.201,1.448-3.201,3.229c0,1.777,1.438,3.226,3.201,3.226s3.197-1.448,3.197-3.226
	C78.208,10.244,76.774,8.795,75.011,8.795L75.011,8.795z M78.208,18.479H7.814v53.25h70.394V18.479L78.208,18.479z"/>
</svg>
