<?xml version="1.0" encoding="utf-8"?>
<!-- Generator: Adobe Illustrator 16.0.3, SVG Export Plug-In . SVG Version: 6.00 Build 0)  -->
<!DOCTYPE svg PUBLIC "-//W3C//DTD SVG 1.1//EN" "http://www.w3.org/Graphics/SVG/1.1/DTD/svg11.dtd">
<svg version="1.1" id="Шар_1" xmlns="http://www.w3.org/2000/svg" xmlns:xlink="http://www.w3.org/1999/xlink" x="0px" y="0px"
	 width="65px" height="33px" viewBox="0 0 65 33" enable-background="new 0 0 65 33" xml:space="preserve">
<path fill="#10FBEA" d="M21.623,16.596c0.481-5.609,5.198-10.028,10.93-10.028c5.733,0,10.451,4.419,10.931,10.028h6.585
	C49.576,7.361,41.908,0,32.553,0S15.531,7.361,15.039,16.596H21.623z"/>
<g>
	<path fill="#FFFFFF" d="M1.11,20.013c0.582,0,1.056,0.474,1.056,1.056s-0.474,1.056-1.056,1.056c-0.582,0-1.055-0.474-1.055-1.056
		S0.529,20.013,1.11,20.013z M0.231,22.827H1.99v6.767H0.231V22.827z"/>
	<path fill="#FFFFFF" d="M3.736,20.798h1.759v2.029h2.571v1.665H5.495v2.665c0,0.677,0.338,0.906,0.853,0.906
		c0.704,0,1.407-0.257,1.827-0.554l0.528,1.542c-0.636,0.433-1.435,0.677-2.354,0.677c-1.502,0-2.612-0.677-2.612-2.585V20.798z"/>
	<path fill="#FFFFFF" d="M15.469,26.86h-4.222v0.067c0,0.622,0.609,1.136,1.543,1.136c0.852,0,1.691-0.271,2.165-0.554l0.528,1.542
		c-0.73,0.433-1.678,0.677-2.692,0.677c-2.03,0-3.356-1.028-3.356-3.438V26.13c0-2.491,1.218-3.519,3.018-3.519
		c1.8,0,3.018,1.027,3.018,3.519V26.86z M11.247,25.561h2.409v-0.067c0-0.784-0.514-1.218-1.205-1.218
		c-0.69,0-1.204,0.434-1.204,1.218V25.561z"/>
	<path fill="#FFFFFF" d="M16.823,23.233c0.676-0.393,1.84-0.622,2.882-0.622c0.69,0,1.299,0.203,1.787,0.595
		c0.568-0.392,1.447-0.595,2.219-0.595c1.65,0,2.869,1.109,2.869,3.519v3.464h-1.746v-3.6c0-1.299-0.487-1.719-1.258-1.719
		c-0.542,0-0.989,0.068-1.246,0.203c0.149,0.46,0.244,1.015,0.244,1.651v3.464h-1.746v-3.6c0-1.299-0.487-1.719-1.258-1.719
		c-0.446,0-0.785,0.068-0.988,0.148v5.17h-1.759V23.233z"/>
	<path fill="#FFFFFF" d="M28.028,20.121h1.759v2.652c0.298-0.122,0.663-0.162,0.988-0.162c1.881,0,3.288,1.109,3.288,3.519v0.161
		c0,2.328-1.326,3.519-3.288,3.519c-0.487,0-1.84-0.081-2.747-0.623V20.121z M32.29,26.13c0-1.558-0.69-1.854-1.651-1.854
		c-0.392,0-0.704,0.081-0.853,0.176v3.519c0.217,0.107,0.501,0.176,0.92,0.176c1.001,0,1.583-0.339,1.583-1.854V26.13z"/>
	<path fill="#FFFFFF" d="M35.281,23.233c0.758-0.446,1.895-0.622,2.747-0.622c0.662,0,1.244,0.121,1.745,0.338l-0.662,1.61
		c-0.299-0.176-0.637-0.284-1.083-0.284c-0.474,0-0.758,0.068-0.987,0.148v5.17h-1.76V23.233z"/>
	<path fill="#FFFFFF" d="M41.521,20.013c0.581,0,1.055,0.474,1.055,1.056s-0.474,1.056-1.055,1.056
		c-0.583,0-1.056-0.474-1.056-1.056S40.938,20.013,41.521,20.013z M40.641,22.827h1.759v6.767h-1.759V22.827z"/>
	<path fill="#FFFFFF" d="M49.937,29.187c-0.906,0.542-2.26,0.623-2.747,0.623c-1.961,0-3.288-1.19-3.288-3.519V26.13
		c0-2.409,1.407-3.519,3.288-3.519c0.325,0,0.69,0.04,0.987,0.162v-2.652h1.76V29.187z M45.674,26.291
		c0,1.516,0.582,1.854,1.583,1.854c0.42,0,0.704-0.068,0.92-0.176v-3.519c-0.148-0.095-0.46-0.176-0.852-0.176
		c-0.96,0-1.651,0.297-1.651,1.854V26.291z"/>
	<path fill="#FFFFFF" d="M57.435,29.999c0,1.949-1.327,2.977-3.14,2.977c-1.083,0-2.003-0.229-2.761-0.663l0.528-1.542
		c0.567,0.338,1.366,0.542,2.232,0.542c0.812,0,1.379-0.407,1.379-1.313v-0.405c-0.297,0.135-0.636,0.216-1.122,0.216
		c-1.813,0-3.152-1.19-3.152-3.6v-0.08c0-2.409,1.501-3.519,3.193-3.519c1.081,0,2.083,0.189,2.842,0.622V29.999z M53.172,26.21
		c0,1.597,0.649,1.936,1.65,1.936c0.406,0,0.636-0.095,0.852-0.217v-3.478c-0.216-0.121-0.527-0.176-0.852-0.176
		c-1.001,0-1.65,0.338-1.65,1.854V26.21z"/>
	<path fill="#FFFFFF" d="M64.932,26.86h-4.223v0.067c0,0.622,0.609,1.136,1.543,1.136c0.853,0,1.691-0.271,2.165-0.554l0.528,1.542
		c-0.731,0.433-1.679,0.677-2.693,0.677c-2.029,0-3.355-1.028-3.355-3.438V26.13c0-2.491,1.219-3.519,3.018-3.519
		s3.018,1.027,3.018,3.519V26.86z M60.709,25.561h2.408v-0.067c0-0.784-0.514-1.218-1.203-1.218c-0.69,0-1.205,0.434-1.205,1.218
		V25.561z"/>
</g>
</svg>
